<svg xmlns="http://www.w3.org/2000/svg" xmlns:xlink="http://www.w3.org/1999/xlink" width="800" zoomAndPan="magnify" viewBox="0 0 600 449.999984" height="600" preserveAspectRatio="xMidYMid meet" version="1.0"><defs><clipPath id="06dbb3dbcf"><path d="M 5 17.128906 L 203 17.128906 L 203 432.628906 L 5 432.628906 Z M 5 17.128906 " clip-rule="nonzero"/></clipPath><clipPath id="028403a6d4"><path d="M 303 17.128906 L 599.808594 17.128906 L 599.808594 432.628906 L 303 432.628906 Z M 303 17.128906 " clip-rule="nonzero"/></clipPath></defs><rect x="-60" width="720" fill="#ffffff" y="-44.999998" height="539.99998" fill-opacity="1"/><rect x="-60" width="720" fill="#ffffff" y="-44.999998" height="539.99998" fill-opacity="1"/><rect x="-60" width="720" fill="#ffffff" y="-44.999998" height="539.99998" fill-opacity="1"/><g clip-path="url(#06dbb3dbcf)"><path fill="#000000" d="M 99.753906 76.953125 L 5.226562 136.75 L 5.195312 139.34375 L 5.195312 141.941406 L 17.238281 162.878906 C 23.828125 174.402344 31.972656 188.523438 35.285156 194.300781 L 41.289062 204.785156 L 55.636719 197.484375 C 67.84375 191.28125 98.324219 175.929688 99.101562 175.605469 C 99.234375 175.539062 99.332031 233.351562 99.332031 304.050781 L 99.332031 432.628906 L 102.675781 432.628906 C 104.75 432.628906 109.035156 432.207031 113.96875 431.492188 C 121.859375 430.390625 136.953125 428.246094 163.277344 424.546875 C 170.875 423.476562 182.332031 421.851562 188.761719 420.945312 C 195.1875 420.066406 200.933594 419.253906 201.515625 419.160156 L 202.554688 418.964844 L 202.554688 17.128906 L 198.433594 17.160156 L 194.277344 17.195312 Z M 99.753906 76.953125 " fill-opacity="1" fill-rule="nonzero"/></g><g clip-path="url(#028403a6d4)"><path fill="#000000" d="M 439.949219 17.453125 C 418.203125 18.71875 397.722656 24.757812 380.710938 34.984375 C 361.820312 46.3125 346.921875 62.121094 333.90625 84.617188 C 318.328125 111.558594 308.425781 145.640625 304.628906 185.441406 C 303.363281 198.457031 303.007812 207.058594 303.007812 223.90625 C 302.972656 240.363281 303.136719 244.519531 304.304688 257.503906 C 308.199219 301.195312 320.597656 339.109375 341.371094 370.792969 C 365.328125 407.375 395.871094 427.207031 435.40625 431.851562 C 442.1875 432.660156 458.9375 432.660156 466.078125 431.882812 C 498.019531 428.3125 523.464844 416.074219 544.824219 393.9375 C 568.582031 369.265625 585.722656 333.589844 593.804688 292.074219 C 600.492188 257.535156 601.660156 214.460938 596.855469 177 C 590.914062 130.449219 575.464844 91.433594 551.738281 63.0625 C 524.179688 30.179688 486.496094 14.824219 439.949219 17.453125 Z M 459.683594 115.292969 C 461.273438 115.746094 463.320312 116.523438 464.230469 117.011719 C 475.394531 122.628906 483.507812 135.9375 488.769531 157.199219 C 493.960938 178.199219 496.007812 203.714844 495.292969 239 C 494.480469 278.636719 491.203125 298.890625 483.152344 314.308594 C 477.210938 325.734375 470.234375 331.839844 459.976562 334.664062 C 456.4375 335.636719 446.636719 335.703125 443.035156 334.792969 C 432.644531 332.128906 425.472656 325.605469 419.5 313.335938 C 413.074219 300.15625 409.566406 282.917969 407.976562 256.527344 C 407.035156 241.078125 407.035156 209.71875 407.976562 194.691406 C 409.664062 167.75 413.300781 148.984375 419.339844 136.359375 C 425.3125 123.859375 432.808594 117.207031 443.683594 114.804688 C 447.902344 113.863281 455.757812 114.089844 459.683594 115.292969 Z M 459.683594 115.292969 " fill-opacity="1" fill-rule="nonzero"/></g></svg>