<svg xmlns="http://www.w3.org/2000/svg" xmlns:xlink="http://www.w3.org/1999/xlink" width="800" zoomAndPan="magnify" viewBox="0 0 600 449.999984" height="600" preserveAspectRatio="xMidYMid meet" version="1.0"><defs><clipPath id="68307ea874"><path d="M 27 17.128906 L 226 17.128906 L 226 432.628906 L 27 432.628906 Z M 27 17.128906 " clip-rule="nonzero"/></clipPath><clipPath id="15a84de3b4"><path d="M 280.207031 17.128906 L 571.203125 17.128906 L 571.203125 432.628906 L 280.207031 432.628906 Z M 280.207031 17.128906 " clip-rule="nonzero"/></clipPath></defs><rect x="-60" width="720" fill="#ffffff" y="-44.999998" height="539.99998" fill-opacity="1"/><rect x="-60" width="720" fill="#ffffff" y="-44.999998" height="539.99998" fill-opacity="1"/><g clip-path="url(#68307ea874)"><path fill="#000000" d="M 122.316406 76.957031 L 27.792969 136.75 L 27.757812 139.34375 L 27.757812 141.941406 L 39.800781 162.878906 C 46.390625 174.402344 54.539062 188.523438 57.851562 194.300781 L 63.855469 204.785156 L 78.203125 197.484375 C 90.410156 191.28125 120.890625 175.929688 121.667969 175.605469 C 121.800781 175.539062 121.894531 233.351562 121.894531 304.050781 L 121.894531 432.628906 L 125.238281 432.628906 C 127.316406 432.628906 131.601562 432.207031 136.535156 431.492188 C 144.425781 430.390625 159.519531 428.246094 185.84375 424.546875 C 193.441406 423.476562 204.898438 421.851562 211.324219 420.945312 C 217.753906 420.066406 223.5 419.253906 224.082031 419.160156 L 225.121094 418.964844 L 225.121094 17.128906 L 221 17.160156 L 216.84375 17.195312 Z M 122.316406 76.957031 " fill-opacity="1" fill-rule="nonzero"/></g><g clip-path="url(#15a84de3b4)"><path fill="#000000" d="M 417.097656 17.359375 C 377.636719 19.4375 345.0625 33.328125 319.761719 58.8125 C 299.105469 79.617188 286.832031 103.085938 282.1875 130.582031 C 280.726562 139.214844 280.398438 143.988281 280.398438 155.738281 C 280.398438 167.390625 280.757812 172.8125 282.1875 182.519531 C 286.601562 213.160156 299.203125 239.648438 318.820312 259.742188 C 337.527344 278.828125 358.996094 289.152344 387.382812 292.558594 C 392.578125 293.210938 408.265625 293.566406 411.675781 293.144531 C 412.941406 292.980469 414.011719 292.917969 414.011719 293.015625 C 414.011719 293.339844 404.367188 305.675781 399.753906 311.257812 C 389.882812 323.171875 381.179688 332.617188 369.160156 344.496094 C 353.246094 360.207031 340.777344 371.019531 318.59375 388.285156 L 311.96875 393.449219 L 317.78125 395.65625 C 320.964844 396.855469 338.699219 403.574219 357.175781 410.554688 C 395.109375 424.871094 400.210938 426.816406 409.140625 430.226562 C 414.5 432.269531 415.800781 432.628906 417.457031 432.628906 L 419.4375 432.628906 L 428.984375 422.628906 C 464.679688 385.332031 484.78125 361.796875 504.984375 333.785156 C 527.78125 302.167969 545.09375 271.429688 555.777344 243.542969 C 572.632812 199.65625 575.75 154.019531 564.515625 116.816406 C 560.488281 103.476562 554.578125 90.980469 546.78125 79.359375 C 538.011719 66.277344 525.671875 53.359375 512.90625 43.910156 C 488.710938 25.992188 459.125 16.902344 425.867188 17.195312 C 422.132812 17.230469 418.171875 17.292969 417.097656 17.359375 Z M 434.410156 113.050781 C 446.132812 115.355469 455.128906 121.785156 462.046875 132.820312 C 468.316406 142.851562 470.265625 155.640625 467.570312 169.046875 C 464.546875 184.238281 453.796875 197.515625 440.15625 202.902344 C 435.414062 204.785156 431.292969 205.5 425.21875 205.53125 C 413.007812 205.53125 403.816406 201.671875 395.824219 193.164062 C 389.039062 185.925781 384.589844 176.644531 383.125 166.742188 C 382.605469 163.238281 382.605469 155.089844 383.125 151.519531 C 384.359375 142.753906 387.640625 134.964844 392.902344 128.179688 C 400.144531 118.894531 408.945312 113.832031 420.183594 112.4375 C 422.652344 112.144531 431.8125 112.535156 434.410156 113.050781 Z M 434.410156 113.050781 " fill-opacity="1" fill-rule="nonzero"/></g></svg>