<svg xmlns="http://www.w3.org/2000/svg" xmlns:xlink="http://www.w3.org/1999/xlink" width="800" zoomAndPan="magnify" viewBox="0 0 600 449.999984" height="600" preserveAspectRatio="xMidYMid meet" version="1.0"><defs><clipPath id="477f55061a"><path d="M 27 17.128906 L 226 17.128906 L 226 432.628906 L 27 432.628906 Z M 27 17.128906 " clip-rule="nonzero"/></clipPath><clipPath id="28fdad49a8"><path d="M 272.441406 17.128906 L 564.191406 17.128906 L 564.191406 426.628906 L 272.441406 426.628906 Z M 272.441406 17.128906 " clip-rule="nonzero"/></clipPath></defs><rect x="-60" width="720" fill="#ffffff" y="-44.999998" height="539.99998" fill-opacity="1"/><rect x="-60" width="720" fill="#ffffff" y="-44.999998" height="539.99998" fill-opacity="1"/><g clip-path="url(#477f55061a)"><path fill="#000000" d="M 122.316406 76.953125 L 27.792969 136.75 L 27.757812 139.34375 L 27.757812 141.941406 L 39.800781 162.878906 C 46.390625 174.402344 54.539062 188.523438 57.851562 194.300781 L 63.855469 204.785156 L 78.203125 197.484375 C 90.410156 191.28125 120.890625 175.929688 121.667969 175.605469 C 121.800781 175.539062 121.894531 233.351562 121.894531 304.050781 L 121.894531 432.628906 L 125.238281 432.628906 C 127.316406 432.628906 131.601562 432.207031 136.535156 431.492188 C 144.425781 430.390625 159.519531 428.246094 185.84375 424.546875 C 193.441406 423.476562 204.898438 421.851562 211.324219 420.945312 C 217.753906 420.066406 223.5 419.253906 224.082031 419.15625 L 225.121094 418.964844 L 225.121094 17.128906 L 221 17.160156 L 216.84375 17.195312 Z M 122.316406 76.953125 " fill-opacity="1" fill-rule="nonzero"/></g><g clip-path="url(#28fdad49a8)"><path fill="#000000" d="M 409.679688 17.324219 C 408.71875 17.386719 405.679688 17.578125 402.960938 17.769531 C 370.269531 20.074219 341.445312 30.054688 317.261719 47.425781 C 302.195312 58.273438 288.375 71.964844 275.769531 88.535156 L 272.410156 92.953125 L 272.507812 95.734375 L 272.601562 98.519531 L 310.480469 123.886719 C 331.304688 137.835938 348.484375 149.257812 348.609375 149.257812 C 348.769531 149.257812 350.304688 147.144531 352.066406 144.523438 C 356.160156 138.507812 358.816406 135.214844 362.847656 131.183594 C 371.898438 122.191406 382.519531 116.242188 393.8125 113.875 C 399.089844 112.785156 407.792969 112.46875 412.238281 113.234375 C 423.371094 115.152344 433.671875 122.191406 438.28125 130.992188 C 442.4375 139.019531 442.660156 150.699219 438.792969 159.078125 C 437.253906 162.40625 436.105469 164.070312 433.640625 166.535156 C 428.042969 172.101562 419.308594 175.652344 408.433594 176.769531 C 406.480469 176.960938 396.40625 177.089844 383.894531 177.089844 L 362.65625 177.089844 L 362.65625 258.03125 L 383.382812 258.03125 C 410.320312 258.03125 418.285156 258.445312 428.105469 260.429688 C 438.40625 262.507812 446.53125 266.667969 450.789062 272.042969 C 452.515625 274.1875 455.136719 279.433594 455.875 282.214844 C 456.707031 285.289062 457.34375 290.535156 457.34375 294.179688 C 457.34375 308.640625 450.980469 318.589844 437.351562 325.375 C 428.203125 329.949219 418.316406 331.933594 406.832031 331.515625 C 391.414062 330.972656 378.488281 325.535156 363.613281 313.28125 C 358.910156 309.410156 351.234375 301.378906 346.5 295.398438 L 342.054688 289.765625 L 340.742188 290.917969 C 340.003906 291.589844 324.363281 306.785156 305.9375 324.703125 L 272.441406 357.300781 L 272.441406 362.386719 L 275.929688 366.257812 C 291.316406 383.4375 308.71875 396.714844 328.90625 406.664062 C 356.992188 420.484375 389.078125 427.269531 422.796875 426.53125 C 459.519531 425.699219 489.238281 416.421875 514.449219 397.898438 C 524.84375 390.253906 535.175781 379.984375 542.472656 370.003906 C 557.316406 349.75 564.863281 324.253906 564.097656 297.21875 C 563.96875 293.507812 563.746094 289.125 563.550781 287.464844 C 561.152344 266.414062 553.921875 249.234375 540.617188 233.171875 C 535.113281 226.519531 524.75 217.113281 517.359375 212.089844 C 515.855469 211.035156 514.609375 210.074219 514.609375 209.914062 C 514.609375 209.753906 515.597656 208.601562 516.78125 207.355469 C 518 206.074219 520.335938 203.386719 521.996094 201.371094 C 541.894531 177.410156 549.574219 156.199219 548.199219 129.199219 C 547.6875 119.3125 546.789062 112.980469 544.804688 104.789062 C 539.144531 81.660156 526.476562 61.984375 507.25 46.59375 C 486.550781 29.992188 464.382812 21.066406 436.039062 17.929688 C 431.847656 17.449219 413.871094 17.035156 409.679688 17.324219 Z M 409.679688 17.324219 " fill-opacity="1" fill-rule="nonzero"/></g></svg>