<svg xmlns="http://www.w3.org/2000/svg" xmlns:xlink="http://www.w3.org/1999/xlink" width="800" zoomAndPan="magnify" viewBox="0 0 600 449.999984" height="600" preserveAspectRatio="xMidYMid meet" version="1.0"><defs><clipPath id="4dc9380583"><path d="M 27 17.128906 L 226 17.128906 L 226 432.628906 L 27 432.628906 Z M 27 17.128906 " clip-rule="nonzero"/></clipPath><clipPath id="628194f4e2"><path d="M 271.136719 21.882812 L 568.136719 21.882812 L 568.136719 428.382812 L 271.136719 428.382812 Z M 271.136719 21.882812 " clip-rule="nonzero"/></clipPath></defs><rect x="-60" width="720" fill="#ffffff" y="-44.999998" height="539.99998" fill-opacity="1"/><rect x="-60" width="720" fill="#ffffff" y="-44.999998" height="539.99998" fill-opacity="1"/><rect x="-60" width="720" fill="#ffffff" y="-44.999998" height="539.99998" fill-opacity="1"/><g clip-path="url(#4dc9380583)"><path fill="#000000" d="M 122.316406 76.953125 L 27.792969 136.75 L 27.757812 139.34375 L 27.757812 141.941406 L 39.800781 162.878906 C 46.390625 174.402344 54.539062 188.523438 57.851562 194.300781 L 63.855469 204.785156 L 78.203125 197.484375 C 90.410156 191.28125 120.890625 175.929688 121.667969 175.605469 C 121.800781 175.539062 121.894531 233.351562 121.894531 304.050781 L 121.894531 432.628906 L 125.238281 432.628906 C 127.316406 432.628906 131.601562 432.207031 136.535156 431.492188 C 144.425781 430.390625 159.519531 428.246094 185.84375 424.546875 C 193.441406 423.476562 204.898438 421.851562 211.324219 420.945312 C 217.753906 420.066406 223.5 419.253906 224.082031 419.160156 L 225.121094 418.964844 L 225.121094 17.128906 L 221 17.160156 L 216.84375 17.195312 Z M 122.316406 76.953125 " fill-opacity="1" fill-rule="nonzero"/></g><g clip-path="url(#628194f4e2)"><path fill="#000000" d="M 312.390625 135.257812 L 312.390625 248.632812 L 313.277344 248.285156 C 316.007812 247.203125 338.027344 239.582031 341.898438 238.375 C 360.714844 232.4375 374.042969 229.863281 390.921875 228.945312 C 413.132812 227.707031 431.125 232.851562 445.179688 244.503906 C 447.339844 246.285156 450.765625 250.15625 452.574219 252.824219 C 454.222656 255.238281 456.320312 259.71875 457.332031 262.925781 C 460.507812 272.960938 460.253906 286.808594 456.730469 297.320312 C 451.367188 313.417969 437.25 325.296875 418.65625 329.394531 C 412.910156 330.664062 409.453125 331.011719 402.664062 330.980469 C 391.269531 330.949219 383.050781 328.980469 372.960938 323.867188 C 362.648438 318.628906 353.890625 311.515625 344.40625 300.714844 C 342.246094 298.269531 340.40625 296.300781 340.28125 296.335938 C 340.152344 296.398438 324.574219 311.355469 305.628906 329.617188 L 271.203125 362.804688 L 271.171875 365.628906 L 271.140625 368.425781 L 277.261719 374.523438 C 302.617188 399.863281 332.0625 416.1875 366.171875 423.90625 C 379.910156 426.984375 391.746094 428.222656 408.054688 428.222656 C 420.367188 428.191406 426.9375 427.78125 437.375 426.285156 C 465.617188 422.285156 490.429688 412.25 511.816406 396.179688 C 519.589844 390.335938 531.550781 378.96875 537.105469 372.171875 C 555.984375 348.925781 565.757812 323.105469 567.820312 291.03125 C 569.121094 270.324219 566.390625 249.683594 559.949219 231.960938 C 550.527344 206.046875 532.566406 183.976562 506.738281 166.699219 C 487.859375 154.058594 467.328125 146.308594 445.308594 143.546875 C 438.804688 142.722656 428.015625 142.214844 424.238281 142.5625 C 422.683594 142.722656 420.496094 142.847656 419.414062 142.847656 L 417.417969 142.878906 L 417.417969 120.332031 L 469.265625 120.332031 C 497.789062 120.332031 521.207031 120.238281 521.269531 120.078125 C 521.367188 119.949219 523.746094 111.628906 526.570312 101.59375 C 535.613281 69.394531 546.019531 32.425781 547.765625 26.234375 L 549.003906 21.882812 L 312.390625 21.882812 Z M 312.390625 135.257812 " fill-opacity="1" fill-rule="nonzero"/></g></svg>