<svg xmlns="http://www.w3.org/2000/svg" xmlns:xlink="http://www.w3.org/1999/xlink" width="800" zoomAndPan="magnify" viewBox="0 0 600 449.999984" height="600" preserveAspectRatio="xMidYMid meet" version="1.0"><defs><clipPath id="833d2f6267"><path d="M 300 31.066406 L 577.5 31.066406 L 577.5 418.816406 L 300 418.816406 Z M 300 31.066406 " clip-rule="nonzero"/></clipPath><clipPath id="316926665f"><path d="M 20.539062 38.300781 L 300.289062 38.300781 L 300.289062 411.800781 L 20.539062 411.800781 Z M 20.539062 38.300781 " clip-rule="nonzero"/></clipPath></defs><rect x="-60" width="720" fill="#ffffff" y="-44.999998" height="539.99998" fill-opacity="1"/><rect x="-60" width="720" fill="#ffffff" y="-44.999998" height="539.99998" fill-opacity="1"/><rect x="-60" width="720" fill="#ffffff" y="-44.999998" height="539.99998" fill-opacity="1"/><g clip-path="url(#833d2f6267)"><path fill="#000000" d="M 428.136719 31.367188 C 407.816406 32.550781 388.679688 38.183594 372.789062 47.726562 C 355.136719 58.296875 341.214844 73.050781 329.054688 94.042969 C 314.496094 119.1875 305.246094 150.996094 301.699219 188.132812 C 300.515625 200.28125 300.183594 208.308594 300.183594 224.03125 C 300.152344 239.390625 300.304688 243.265625 301.394531 255.382812 C 305.035156 296.160156 316.621094 331.539062 336.03125 361.105469 C 358.410156 395.246094 386.949219 413.753906 423.890625 418.085938 C 430.226562 418.84375 445.878906 418.84375 452.550781 418.117188 C 482.390625 414.785156 506.167969 403.367188 526.125 382.707031 C 548.324219 359.683594 564.335938 326.390625 571.890625 287.644531 C 578.136719 255.414062 579.226562 215.214844 574.738281 180.257812 C 569.191406 136.816406 554.753906 100.40625 532.585938 73.929688 C 506.835938 43.242188 471.625 28.914062 428.136719 31.367188 Z M 446.574219 122.671875 C 448.0625 123.09375 449.972656 123.820312 450.820312 124.277344 C 461.253906 129.515625 468.835938 141.9375 473.75 161.777344 C 478.601562 181.378906 480.511719 205.1875 479.84375 238.117188 C 479.085938 275.105469 476.023438 294.007812 468.5 308.398438 C 462.953125 319.058594 456.429688 324.753906 446.847656 327.390625 C 443.542969 328.300781 434.382812 328.359375 431.015625 327.511719 C 421.3125 325.027344 414.609375 318.9375 409.027344 307.488281 C 403.023438 295.1875 399.75 279.105469 398.261719 254.476562 C 397.382812 240.054688 397.382812 210.792969 398.261719 196.765625 C 399.839844 171.625 403.234375 154.113281 408.878906 142.332031 C 414.457031 130.667969 421.464844 124.457031 431.621094 122.214844 C 435.566406 121.335938 442.90625 121.550781 446.574219 122.671875 Z M 446.574219 122.671875 " fill-opacity="1" fill-rule="nonzero"/></g><g clip-path="url(#316926665f)"><path fill="#000000" d="M 144.351562 38.480469 C 143.621094 38.539062 141.257812 38.714844 139.09375 38.890625 C 106.566406 41.488281 76.894531 55.433594 53.972656 78.894531 C 38.058594 95.207031 28.449219 113.878906 24.507812 136.347656 C 22.085938 149.917969 22.085938 167.191406 24.480469 183.328125 C 27.339844 202.789062 34.378906 221.667969 44.191406 236.285156 C 52.980469 249.359375 64.398438 260.125 78.355469 268.53125 C 82.09375 270.777344 94.066406 276.992188 94.679688 276.992188 C 94.941406 276.992188 150.046875 203.605469 150.339844 202.847656 C 150.453125 202.527344 148.90625 201.652344 144.4375 199.460938 C 137.285156 195.960938 133.808594 193.714844 130.21875 190.328125 C 123.53125 183.996094 120.085938 176.644531 119.265625 166.957031 C 118.273438 155.460938 121.691406 145.917969 129.839844 137.3125 C 136.203125 130.601562 143.824219 127.300781 153.054688 127.300781 C 165.289062 127.300781 174.605469 131.765625 181.351562 140.898438 C 184.738281 145.480469 187.191406 151.347656 188.328125 157.503906 C 189.089844 161.589844 189.089844 172.0625 188.328125 177.054688 C 186.664062 187.9375 183.101562 196.371094 175.21875 208.128906 C 171.449219 213.761719 122.128906 278.363281 93.714844 314.925781 C 53.945312 366.074219 34.699219 389.59375 24.21875 399.777344 L 20.539062 403.335938 L 20.539062 411.800781 L 149.140625 411.800781 C 271.378906 411.800781 277.773438 411.769531 277.917969 411.273438 C 278.007812 411.011719 279.261719 406.3125 280.691406 400.855469 C 282.125 395.398438 284.78125 385.421875 286.5625 378.679688 C 288.34375 371.941406 290.972656 362.019531 292.402344 356.652344 C 293.832031 351.28125 296.171875 342.382812 297.628906 336.894531 C 300.257812 327.0625 300.289062 326.859375 300.289062 323.53125 L 300.289062 320.175781 L 250.734375 320.117188 L 201.207031 320.03125 L 205.996094 315.070312 C 243.433594 276.292969 270.5 235.761719 282.035156 201.273438 C 285.453125 190.941406 287.351562 182.597656 288.664062 171.800781 C 289.21875 167.042969 289.132812 152.132812 288.488281 145.683594 C 286.476562 125.289062 281.277344 108.746094 272.253906 93.835938 C 261.683594 76.445312 245.679688 62.144531 226.523438 53.011719 C 210.375 45.28125 192.855469 40.902344 170.632812 39.007812 C 165.875 38.597656 147.332031 38.21875 144.351562 38.480469 Z M 144.351562 38.480469 " fill-opacity="1" fill-rule="nonzero"/></g></svg>