<svg xmlns="http://www.w3.org/2000/svg" xmlns:xlink="http://www.w3.org/1999/xlink" width="800" zoomAndPan="magnify" viewBox="0 0 600 449.999984" height="600" preserveAspectRatio="xMidYMid meet" version="1.0"><defs><clipPath id="24cc8e14a2"><path d="M 50 17.128906 L 248 17.128906 L 248 432.628906 L 50 432.628906 Z M 50 17.128906 " clip-rule="nonzero"/></clipPath><clipPath id="165661a67e"><path d="M 350 17.128906 L 548 17.128906 L 548 432.628906 L 350 432.628906 Z M 350 17.128906 " clip-rule="nonzero"/></clipPath></defs><rect x="-60" width="720" fill="#ffffff" y="-44.999998" height="539.99998" fill-opacity="1"/><rect x="-60" width="720" fill="#ffffff" y="-44.999998" height="539.99998" fill-opacity="1"/><g clip-path="url(#24cc8e14a2)"><path fill="#000000" d="M 144.753906 76.957031 L 50.226562 136.75 L 50.195312 139.34375 L 50.195312 141.941406 L 62.238281 162.878906 C 68.828125 174.402344 76.972656 188.523438 80.285156 194.300781 L 86.289062 204.785156 L 100.636719 197.484375 C 112.84375 191.28125 143.324219 175.929688 144.101562 175.605469 C 144.234375 175.539062 144.332031 233.351562 144.332031 304.050781 L 144.332031 432.628906 L 147.675781 432.628906 C 149.75 432.628906 154.035156 432.207031 158.96875 431.492188 C 166.859375 430.390625 181.953125 428.246094 208.277344 424.546875 C 215.875 423.476562 227.332031 421.851562 233.761719 420.945312 C 240.1875 420.066406 245.933594 419.253906 246.515625 419.160156 L 247.554688 418.964844 L 247.554688 17.128906 L 243.433594 17.160156 L 239.277344 17.195312 Z M 144.753906 76.957031 " fill-opacity="1" fill-rule="nonzero"/></g><g clip-path="url(#165661a67e)"><path fill="#000000" d="M 444.753906 76.957031 L 350.226562 136.75 L 350.195312 139.34375 L 350.195312 141.941406 L 362.238281 162.878906 C 368.828125 174.402344 376.972656 188.523438 380.285156 194.300781 L 386.289062 204.785156 L 400.636719 197.484375 C 412.84375 191.28125 443.324219 175.929688 444.101562 175.605469 C 444.234375 175.539062 444.332031 233.351562 444.332031 304.050781 L 444.332031 432.628906 L 447.675781 432.628906 C 449.75 432.628906 454.035156 432.207031 458.96875 431.492188 C 466.859375 430.390625 481.953125 428.246094 508.277344 424.546875 C 515.875 423.476562 527.332031 421.851562 533.761719 420.945312 C 540.1875 420.066406 545.933594 419.253906 546.515625 419.160156 L 547.554688 418.964844 L 547.554688 17.128906 L 543.433594 17.160156 L 539.277344 17.195312 Z M 444.753906 76.957031 " fill-opacity="1" fill-rule="nonzero"/></g></svg>