<svg xmlns="http://www.w3.org/2000/svg" xmlns:xlink="http://www.w3.org/1999/xlink" width="800" zoomAndPan="magnify" viewBox="0 0 600 449.999984" height="600" preserveAspectRatio="xMidYMid meet" version="1.0"><defs><clipPath id="7ae8e74211"><path d="M 27 17.128906 L 226 17.128906 L 226 432.628906 L 27 432.628906 Z M 27 17.128906 " clip-rule="nonzero"/></clipPath><clipPath id="ff4252dc9f"><path d="M 268.613281 17.128906 L 573.113281 17.128906 L 573.113281 424.378906 L 268.613281 424.378906 Z M 268.613281 17.128906 " clip-rule="nonzero"/></clipPath></defs><rect x="-60" width="720" fill="#ffffff" y="-44.999998" height="539.99998" fill-opacity="1"/><rect x="-60" width="720" fill="#ffffff" y="-44.999998" height="539.99998" fill-opacity="1"/><g clip-path="url(#7ae8e74211)"><path fill="#000000" d="M 122.316406 76.957031 L 27.792969 136.75 L 27.757812 139.34375 L 27.757812 141.941406 L 39.800781 162.878906 C 46.390625 174.402344 54.539062 188.523438 57.851562 194.300781 L 63.855469 204.785156 L 78.203125 197.484375 C 90.410156 191.28125 120.890625 175.929688 121.667969 175.605469 C 121.800781 175.539062 121.894531 233.351562 121.894531 304.050781 L 121.894531 432.628906 L 125.238281 432.628906 C 127.316406 432.628906 131.601562 432.207031 136.535156 431.492188 C 144.425781 430.390625 159.519531 428.246094 185.84375 424.546875 C 193.441406 423.476562 204.898438 421.851562 211.324219 420.945312 C 217.753906 420.066406 223.5 419.253906 224.082031 419.160156 L 225.121094 418.964844 L 225.121094 17.128906 L 221 17.160156 L 216.84375 17.195312 Z M 122.316406 76.957031 " fill-opacity="1" fill-rule="nonzero"/></g><g clip-path="url(#ff4252dc9f)"><path fill="#000000" d="M 403.382812 17.320312 C 402.585938 17.386719 400.011719 17.578125 397.660156 17.765625 C 362.25 20.597656 329.957031 35.808594 305.007812 61.386719 C 287.683594 79.171875 277.226562 99.535156 272.933594 124.035156 C 270.296875 138.828125 270.296875 157.664062 272.902344 175.257812 C 276.019531 196.480469 283.679688 217.0625 294.359375 233.003906 C 303.925781 247.257812 316.355469 258.996094 331.546875 268.160156 C 335.617188 270.609375 348.648438 277.386719 349.316406 277.386719 C 349.601562 277.386719 409.578125 197.371094 409.898438 196.542969 C 410.023438 196.191406 408.339844 195.238281 403.476562 192.851562 C 395.6875 189.035156 391.90625 186.585938 387.996094 182.894531 C 380.71875 175.988281 376.96875 167.972656 376.078125 157.410156 C 374.996094 144.871094 378.714844 134.46875 387.582031 125.082031 C 394.511719 117.765625 402.808594 114.171875 412.851562 114.171875 C 426.171875 114.171875 436.308594 119.039062 443.652344 128.996094 C 447.339844 133.992188 450.007812 140.386719 451.25 147.101562 C 452.074219 151.554688 452.074219 162.976562 451.25 168.417969 C 449.4375 180.285156 445.558594 189.480469 436.976562 202.300781 C 432.878906 208.441406 379.191406 278.882812 348.265625 318.75 C 304.976562 374.523438 284.027344 400.164062 272.617188 411.269531 L 268.613281 415.152344 L 268.613281 424.378906 L 408.59375 424.378906 C 541.644531 424.378906 548.605469 424.347656 548.765625 423.804688 C 548.859375 423.519531 550.226562 418.398438 551.785156 412.445312 C 553.34375 406.496094 556.234375 395.617188 558.171875 388.265625 C 560.113281 380.917969 562.972656 370.097656 564.53125 364.246094 C 566.089844 358.390625 568.632812 348.6875 570.21875 342.707031 C 573.082031 331.984375 573.113281 331.761719 573.113281 328.132812 L 573.113281 324.476562 L 519.171875 324.410156 L 465.265625 324.316406 L 470.480469 318.90625 C 511.226562 276.625 540.691406 232.429688 553.246094 194.824219 C 556.964844 183.5625 559.03125 174.460938 560.460938 162.691406 C 561.066406 157.503906 560.972656 141.246094 560.273438 134.214844 C 558.078125 111.976562 552.421875 93.933594 542.597656 77.675781 C 531.09375 58.714844 513.675781 43.125 492.824219 33.167969 C 475.246094 24.734375 456.175781 19.960938 431.988281 17.894531 C 426.804688 17.449219 406.621094 17.035156 403.382812 17.320312 Z M 403.382812 17.320312 " fill-opacity="1" fill-rule="nonzero"/></g></svg>