<svg xmlns="http://www.w3.org/2000/svg" xmlns:xlink="http://www.w3.org/1999/xlink" width="800" zoomAndPan="magnify" viewBox="0 0 600 449.999984" height="600" preserveAspectRatio="xMidYMid meet" version="1.0"><defs><clipPath id="f0c189708b"><path d="M 27 17.128906 L 226 17.128906 L 226 432.628906 L 27 432.628906 Z M 27 17.128906 " clip-rule="nonzero"/></clipPath><clipPath id="8f196134ea"><path d="M 250.132812 17.128906 L 554.632812 17.128906 L 554.632812 418.378906 L 250.132812 418.378906 Z M 250.132812 17.128906 " clip-rule="nonzero"/></clipPath></defs><rect x="-60" width="720" fill="#ffffff" y="-44.999998" height="539.99998" fill-opacity="1"/><rect x="-60" width="720" fill="#ffffff" y="-44.999998" height="539.99998" fill-opacity="1"/><g clip-path="url(#f0c189708b)"><path fill="#000000" d="M 122.316406 76.957031 L 27.792969 136.75 L 27.757812 139.34375 L 27.757812 141.941406 L 39.800781 162.878906 C 46.390625 174.402344 54.539062 188.523438 57.851562 194.300781 L 63.855469 204.785156 L 78.203125 197.484375 C 90.410156 191.28125 120.890625 175.929688 121.667969 175.605469 C 121.800781 175.539062 121.894531 233.351562 121.894531 304.050781 L 121.894531 432.628906 L 125.238281 432.628906 C 127.316406 432.628906 131.601562 432.207031 136.535156 431.492188 C 144.425781 430.390625 159.519531 428.246094 185.84375 424.546875 C 193.441406 423.476562 204.898438 421.851562 211.324219 420.945312 C 217.753906 420.066406 223.5 419.253906 224.082031 419.160156 L 225.121094 418.964844 L 225.121094 17.128906 L 221 17.160156 L 216.84375 17.195312 Z M 122.316406 76.957031 " fill-opacity="1" fill-rule="nonzero"/></g><g clip-path="url(#8f196134ea)"><path fill="#000000" d="M 370.992188 22.242188 C 369.863281 25.03125 362.722656 42.335938 355.140625 60.707031 C 347.558594 79.074219 326.726562 129.480469 308.871094 172.773438 C 271.402344 263.523438 266.328125 275.839844 256.992188 298.441406 L 250.132812 315.023438 L 250.132812 322.769531 L 403.632812 322.769531 L 403.632812 418.375 L 407.019531 418.375 C 410.527344 418.375 409.554688 418.5 461.433594 410.695312 C 496.613281 405.398438 502.03125 404.582031 502.191406 404.582031 C 502.253906 404.582031 502.316406 386.183594 502.316406 363.675781 L 502.316406 322.769531 L 520.953125 322.769531 C 531.199219 322.769531 539.59375 322.640625 539.59375 322.515625 C 539.59375 322.359375 542.976562 303.675781 547.113281 280.949219 C 553.972656 243.332031 554.632812 239.351562 554.632812 236.25 L 554.632812 232.800781 L 502.316406 232.800781 L 502.316406 17.132812 L 373.089844 17.132812 Z M 409.898438 188.132812 L 409.898438 232.800781 L 391.417969 232.800781 C 381.265625 232.800781 372.933594 232.707031 372.933594 232.582031 C 372.933594 232.300781 409.679688 143.460938 409.804688 143.460938 C 409.867188 143.460938 409.898438 163.554688 409.898438 188.132812 Z M 409.898438 188.132812 " fill-opacity="1" fill-rule="nonzero"/></g></svg>