<svg xmlns="http://www.w3.org/2000/svg" xmlns:xlink="http://www.w3.org/1999/xlink" width="800" zoomAndPan="magnify" viewBox="0 0 600 449.999984" height="600" preserveAspectRatio="xMidYMid meet" version="1.0"><defs><clipPath id="98bd7524be"><path d="M 27 17.128906 L 226 17.128906 L 226 432.628906 L 27 432.628906 Z M 27 17.128906 " clip-rule="nonzero"/></clipPath><clipPath id="1531547010"><path d="M 268.929688 20.890625 L 554.679688 20.890625 L 554.679688 428.890625 L 268.929688 428.890625 Z M 268.929688 20.890625 " clip-rule="nonzero"/></clipPath></defs><rect x="-60" width="720" fill="#ffffff" y="-44.999998" height="539.99998" fill-opacity="1"/><rect x="-60" width="720" fill="#ffffff" y="-44.999998" height="539.99998" fill-opacity="1"/><g clip-path="url(#98bd7524be)"><path fill="#000000" d="M 122.316406 76.957031 L 27.792969 136.75 L 27.757812 139.34375 L 27.757812 141.941406 L 39.800781 162.878906 C 46.390625 174.402344 54.539062 188.523438 57.851562 194.300781 L 63.855469 204.785156 L 78.203125 197.484375 C 90.410156 191.28125 120.890625 175.929688 121.667969 175.605469 C 121.800781 175.539062 121.894531 233.351562 121.894531 304.050781 L 121.894531 432.628906 L 125.238281 432.628906 C 127.316406 432.628906 131.601562 432.207031 136.535156 431.492188 C 144.425781 430.390625 159.519531 428.246094 185.84375 424.546875 C 193.441406 423.476562 204.898438 421.851562 211.324219 420.945312 C 217.753906 420.066406 223.5 419.253906 224.082031 419.160156 L 225.121094 418.964844 L 225.121094 17.128906 L 221 17.160156 L 216.84375 17.195312 Z M 122.316406 76.957031 " fill-opacity="1" fill-rule="nonzero"/></g><g clip-path="url(#1531547010)"><path fill="#000000" d="M 408.394531 30.550781 C 364.847656 74.121094 330.472656 118.523438 305.433594 163.53125 C 301.007812 171.5 293.519531 186.511719 290.113281 194.289062 C 269.023438 242.261719 263.734375 285.707031 274.058594 325.617188 C 280.300781 349.839844 292.3125 370.71875 310.5 388.917969 C 325.570312 403.996094 341.65625 414.164062 361.054688 420.859375 C 377.652344 426.597656 395.621094 429.242188 414.988281 428.796875 C 452.003906 427.933594 481.410156 417.480469 507.054688 396.089844 C 511.386719 392.488281 521.007812 382.734375 524.828125 378.113281 C 541.617188 357.746094 550.886719 335.527344 553.945312 308.402344 C 554.644531 302.316406 554.710938 284.6875 554.105469 278.28125 C 552.066406 257.625 547.796875 241.433594 540.183594 225.59375 C 529.191406 202.769531 512.53125 183.898438 493.515625 172.679688 C 482.363281 166.144531 469.8125 161.523438 456.878906 159.261719 C 448.183594 157.730469 445.632812 157.507812 434.996094 157.507812 C 428.242188 157.476562 424.832031 157.378906 424.992188 157.15625 C 426.777344 154.828125 435.058594 144.535156 438.210938 140.742188 C 449.457031 127.226562 458.121094 117.789062 471.660156 104.210938 C 487.144531 88.722656 496.285156 80.527344 514.378906 65.992188 C 519.125 62.167969 523.011719 58.980469 523.078125 58.855469 C 523.109375 58.757812 519.796875 57.417969 515.75 55.890625 C 508.519531 53.179688 496.09375 48.558594 482.460938 43.492188 C 478.734375 42.121094 472.617188 39.824219 468.921875 38.453125 C 455.285156 33.386719 448.121094 30.707031 441.523438 28.253906 C 437.796875 26.851562 431.808594 24.652344 428.242188 23.3125 C 422.890625 21.304688 421.425781 20.890625 419.894531 20.890625 L 418.015625 20.890625 Z M 417.695312 244.335938 C 429.324219 245.671875 438.847656 251.824219 446.113281 262.632812 C 449.617188 267.890625 451.78125 272.957031 453.121094 279.175781 C 453.726562 281.980469 453.820312 283.382812 453.820312 289.277344 C 453.820312 295.207031 453.726562 296.578125 453.121094 299.476562 C 451.65625 306.203125 449.328125 311.71875 445.667969 317.042969 C 435.664062 331.703125 422.1875 337.472656 404.636719 334.636719 C 396.066406 333.265625 389.664062 329.917969 383.292969 323.417969 C 376.410156 316.46875 372.269531 308.914062 370.328125 299.796875 C 369.53125 296.003906 369.53125 284.625 370.328125 280.609375 C 371.121094 276.558594 372.269531 272.832031 373.671875 269.613281 C 377.078125 261.707031 384.3125 253.707031 392.050781 249.273438 C 399.378906 245.101562 408.714844 243.316406 417.695312 244.335938 Z M 417.695312 244.335938 " fill-opacity="1" fill-rule="nonzero"/></g></svg>