<svg xmlns="http://www.w3.org/2000/svg" xmlns:xlink="http://www.w3.org/1999/xlink" width="800" zoomAndPan="magnify" viewBox="0 0 600 449.999984" height="600" preserveAspectRatio="xMidYMid meet" version="1.0"><defs><clipPath id="90a39e31c8"><path d="M 27 17.128906 L 226 17.128906 L 226 432.628906 L 27 432.628906 Z M 27 17.128906 " clip-rule="nonzero"/></clipPath><clipPath id="450a240bea"><path d="M 261.847656 17.128906 L 555.097656 17.128906 L 555.097656 425.878906 L 261.847656 425.878906 Z M 261.847656 17.128906 " clip-rule="nonzero"/></clipPath></defs><rect x="-60" width="720" fill="#ffffff" y="-44.999998" height="539.99998" fill-opacity="1"/><rect x="-60" width="720" fill="#ffffff" y="-44.999998" height="539.99998" fill-opacity="1"/><g clip-path="url(#90a39e31c8)"><path fill="#000000" d="M 122.316406 76.957031 L 27.792969 136.75 L 27.757812 139.34375 L 27.757812 141.941406 L 39.800781 162.878906 C 46.390625 174.402344 54.539062 188.523438 57.851562 194.300781 L 63.855469 204.785156 L 78.203125 197.484375 C 90.410156 191.28125 120.890625 175.929688 121.667969 175.605469 C 121.800781 175.539062 121.894531 233.351562 121.894531 304.050781 L 121.894531 432.628906 L 125.238281 432.628906 C 127.316406 432.628906 131.601562 432.207031 136.535156 431.492188 C 144.425781 430.390625 159.519531 428.246094 185.84375 424.546875 C 193.441406 423.476562 204.898438 421.851562 211.324219 420.945312 C 217.753906 420.066406 223.5 419.253906 224.082031 419.160156 L 225.121094 418.964844 L 225.121094 17.128906 L 221 17.160156 L 216.84375 17.195312 Z M 122.316406 76.957031 " fill-opacity="1" fill-rule="nonzero"/></g><g clip-path="url(#450a240bea)"><path fill="#000000" d="M 286.445312 17.292969 C 286.445312 17.390625 283.921875 27.128906 280.820312 38.945312 C 277.753906 50.757812 272.195312 71.929688 268.523438 85.980469 L 261.847656 111.589844 L 261.847656 118.679688 L 339.789062 118.679688 C 387.644531 118.679688 417.734375 118.808594 417.734375 118.96875 C 417.734375 119.128906 411.601562 136.625 404.125 157.863281 C 386.492188 207.902344 369.851562 255.066406 355.125 296.867188 C 348.640625 315.292969 338 345.4375 331.515625 363.828125 C 314.363281 412.496094 309.761719 425.589844 309.761719 425.746094 C 309.761719 425.8125 311.871094 425.875 314.492188 425.875 C 318.484375 425.875 321.070312 425.621094 331.484375 424.121094 C 338.257812 423.160156 357.074219 420.511719 373.332031 418.210938 C 424.507812 410.996094 431.503906 409.972656 431.664062 409.8125 C 431.757812 409.71875 442.683594 375.773438 455.941406 334.324219 C 481.558594 254.234375 480.699219 256.949219 484.117188 246.253906 C 485.363281 242.390625 501.84375 190.914062 520.722656 131.867188 L 555.097656 24.511719 L 555.097656 17.132812 L 420.769531 17.132812 C 346.882812 17.132812 286.445312 17.199219 286.445312 17.292969 Z M 286.445312 17.292969 " fill-opacity="1" fill-rule="nonzero"/></g></svg>