<svg xmlns="http://www.w3.org/2000/svg" xmlns:xlink="http://www.w3.org/1999/xlink" width="800" zoomAndPan="magnify" viewBox="0 0 600 449.999984" height="600" preserveAspectRatio="xMidYMid meet" version="1.0"><defs><clipPath id="cc3a701224"><path d="M 27 17.128906 L 226 17.128906 L 226 432.628906 L 27 432.628906 Z M 27 17.128906 " clip-rule="nonzero"/></clipPath><clipPath id="ffbcabc7e1"><path d="M 255.933594 17.128906 L 555.183594 17.128906 L 555.183594 430.378906 L 255.933594 430.378906 Z M 255.933594 17.128906 " clip-rule="nonzero"/></clipPath></defs><rect x="-60" width="720" fill="#ffffff" y="-44.999998" height="539.99998" fill-opacity="1"/><rect x="-60" width="720" fill="#ffffff" y="-44.999998" height="539.99998" fill-opacity="1"/><g clip-path="url(#cc3a701224)"><path fill="#000000" d="M 122.316406 76.953125 L 27.792969 136.75 L 27.757812 139.34375 L 27.757812 141.941406 L 39.800781 162.878906 C 46.390625 174.402344 54.539062 188.523438 57.851562 194.300781 L 63.855469 204.785156 L 78.203125 197.484375 C 90.410156 191.28125 120.890625 175.929688 121.667969 175.605469 C 121.800781 175.539062 121.894531 233.351562 121.894531 304.050781 L 121.894531 432.628906 L 125.238281 432.628906 C 127.316406 432.628906 131.601562 432.207031 136.535156 431.492188 C 144.425781 430.390625 159.519531 428.246094 185.84375 424.546875 C 193.441406 423.476562 204.898438 421.851562 211.324219 420.945312 C 217.753906 420.066406 223.5 419.253906 224.082031 419.15625 L 225.121094 418.964844 L 225.121094 17.128906 L 221 17.160156 L 216.84375 17.195312 Z M 122.316406 76.953125 " fill-opacity="1" fill-rule="nonzero"/></g><g clip-path="url(#ffbcabc7e1)"><path fill="#000000" d="M 394.585938 17.324219 C 380.992188 18.324219 373.050781 19.519531 362.625 22.199219 C 332.121094 30.011719 303.066406 49.609375 286.570312 73.46875 C 275.789062 89.0625 270.042969 105.785156 268.203125 126.898438 C 265.621094 156.664062 277.660156 186.269531 303.613281 213.941406 C 305.808594 216.296875 307.585938 218.265625 307.585938 218.363281 C 307.585938 218.460938 306.066406 219.621094 304.226562 220.976562 C 294.089844 228.371094 283.988281 237.925781 277.015625 246.710938 C 263.554688 263.691406 256.804688 283.804688 256.03125 309.148438 C 255.417969 329.519531 259.195312 347.4375 267.460938 363.644531 C 277.886719 384.050781 295.316406 400.355469 319.789062 412.589844 C 338.867188 422.148438 360.011719 427.667969 385.546875 429.796875 C 392.164062 430.347656 414.5 430.347656 420.894531 429.796875 C 441.390625 428.023438 455.726562 425.277344 470.929688 420.144531 C 492.300781 412.976562 511.347656 401.613281 525.164062 387.761719 C 539.496094 373.460938 548.503906 356.703125 552.601562 336.847656 C 556.539062 317.867188 555.863281 296.816406 550.792969 279.15625 C 544.304688 256.589844 528.617188 236.214844 504.179688 218.6875 C 504.117188 218.621094 506.085938 216.492188 508.570312 213.972656 C 518.933594 203.480469 525.808594 194.019531 531.910156 181.878906 C 539.5625 166.578125 542.917969 150.5 542.5 131.128906 C 542.078125 111.402344 538.464844 96.003906 530.683594 80.503906 C 525.875 70.851562 519.835938 62.78125 511.25 54.417969 C 492.945312 36.628906 467.929688 24.78125 438.324219 19.90625 C 427.574219 18.128906 419.148438 17.453125 406.527344 17.324219 C 400.847656 17.257812 395.488281 17.257812 394.585938 17.324219 Z M 414.113281 107.207031 C 419.957031 108.691406 426.867188 113.015625 430.0625 117.179688 C 433.355469 121.476562 434.839844 126.316406 434.839844 132.871094 C 434.839844 137.519531 434.195312 140.8125 432.546875 144.816406 C 429.414062 152.40625 422.796875 159.214844 412.757812 165.1875 C 409.175781 167.320312 404.332031 169.839844 403.847656 169.839844 C 403.234375 169.839844 397.261719 166.417969 393.359375 163.800781 C 388.773438 160.765625 383.769531 156.214844 381.21875 152.757812 C 373.957031 142.945312 373.019531 129.644531 378.960938 120.441406 C 380.574219 117.957031 384.640625 113.695312 387.128906 111.917969 C 390.871094 109.269531 395.777344 107.207031 400.007812 106.527344 C 403.105469 106.042969 411.078125 106.429688 414.113281 107.207031 Z M 408.5625 262.527344 C 422.28125 268.082031 432.742188 275.21875 439.132812 283.320312 C 444.78125 290.519531 447.363281 298.042969 447.363281 307.277344 C 447.363281 315.863281 445.007812 321.933594 439.359375 327.777344 C 430.480469 336.976562 416.792969 341.53125 400.71875 340.5625 C 389.675781 339.917969 379.058594 335.363281 371.953125 328.230469 C 367.597656 323.804688 365.335938 319.609375 364.238281 313.667969 C 363.433594 309.40625 363.722656 302.53125 364.886719 298.171875 C 366.402344 292.359375 370.179688 285.582031 374.601562 280.671875 C 378.023438 276.800781 384.769531 271.664062 391.839844 267.4375 C 394.875 265.628906 403.785156 260.882812 404.203125 260.882812 C 404.367188 260.882812 406.300781 261.625 408.5625 262.527344 Z M 408.5625 262.527344 " fill-opacity="1" fill-rule="nonzero"/></g></svg>