<svg width="60" height="61" viewBox="0 0 60 61" fill="none" xmlns="http://www.w3.org/2000/svg">
<ellipse cx="30" cy="30.3804" rx="30" ry="30.3804" fill="#7F22F8"/>
<path d="M38.6504 47H21.7578V44.4863L28.5254 37.6836C30.5879 35.5977 31.9473 34.1094 32.6035 33.2188C33.2598 32.3281 33.752 31.4609 34.0801 30.6172C34.4082 29.7734 34.5723 28.8652 34.5723 27.8926C34.5723 26.5215 34.1562 25.4375 33.3242 24.6406C32.4922 23.832 31.3379 23.4277 29.8613 23.4277C28.7949 23.4277 27.7812 23.6035 26.8203 23.9551C25.8711 24.3066 24.8105 24.9453 23.6387 25.8711L22.0918 23.8848C24.459 21.916 27.0371 20.9316 29.8262 20.9316C32.2402 20.9316 34.1328 21.5527 35.5039 22.7949C36.875 24.0254 37.5605 25.6836 37.5605 27.7695C37.5605 29.3984 37.1035 31.0098 36.1895 32.6035C35.2754 34.1973 33.5645 36.2129 31.0566 38.6504L25.4316 44.1523V44.293H38.6504V47Z" fill="white"/>
</svg>
