<svg width="60" height="61" viewBox="0 0 60 61" fill="none" xmlns="http://www.w3.org/2000/svg">
<ellipse cx="30" cy="30.3804" rx="30" ry="30.3804" fill="#7F22F8"/>
<path d="M37.6836 27.3477C37.6836 28.9883 37.2207 30.3301 36.2949 31.373C35.3809 32.416 34.0801 33.1133 32.3926 33.4648V33.6055C34.4551 33.8633 35.9844 34.5195 36.9805 35.5742C37.9766 36.6289 38.4746 38.0117 38.4746 39.7227C38.4746 42.1719 37.625 44.0586 35.9258 45.3828C34.2266 46.6953 31.8125 47.3516 28.6836 47.3516C27.3242 47.3516 26.0762 47.2461 24.9395 47.0352C23.8145 46.8359 22.7188 46.4785 21.6523 45.9629V43.1855C22.7656 43.7363 23.9492 44.1582 25.2031 44.4512C26.4688 44.7324 27.6641 44.873 28.7891 44.873C33.2305 44.873 35.4512 43.1328 35.4512 39.6523C35.4512 36.5352 33.002 34.9766 28.1035 34.9766H25.5723V32.4629H28.1387C30.1426 32.4629 31.7305 32.0234 32.9023 31.1445C34.0742 30.2539 34.6602 29.0234 34.6602 27.4531C34.6602 26.1992 34.2266 25.2148 33.3594 24.5C32.5039 23.7852 31.3379 23.4277 29.8613 23.4277C28.7363 23.4277 27.6758 23.5801 26.6797 23.8848C25.6836 24.1895 24.5469 24.752 23.2695 25.5723L21.793 23.6035C22.8477 22.7715 24.0605 22.1211 25.4316 21.6523C26.8145 21.1719 28.2676 20.9316 29.791 20.9316C32.2871 20.9316 34.2266 21.5059 35.6094 22.6543C36.9922 23.791 37.6836 25.3555 37.6836 27.3477Z" fill="white"/>
</svg>
