<svg width="101" height="96" viewBox="0 0 101 96" fill="none" xmlns="http://www.w3.org/2000/svg">
<ellipse cx="50.4" cy="48" rx="50.4" ry="48" fill="#7F22F8"/>
<path d="M50.6182 34.2983C52.6429 34.2983 54.2836 35.939 54.2836 37.9638C54.2836 39.9885 52.6429 41.6292 50.6182 41.6292C48.5935 41.6292 46.9527 39.9885 46.9527 37.9638C46.9527 35.939 48.5935 34.2983 50.6182 34.2983ZM50.6182 50.0074C55.8022 50.0074 61.2655 52.5558 61.2655 53.6728V55.5928H39.9709V53.6728C39.9709 52.5558 45.4342 50.0074 50.6182 50.0074ZM50.6182 30.9819C46.7607 30.9819 43.6364 34.1063 43.6364 37.9638C43.6364 41.8212 46.7607 44.9456 50.6182 44.9456C54.4756 44.9456 57.6 41.8212 57.6 37.9638C57.6 34.1063 54.4756 30.9819 50.6182 30.9819ZM50.6182 46.691C45.9578 46.691 36.6545 49.0299 36.6545 53.6728V58.9092H64.5818V53.6728C64.5818 49.0299 55.2785 46.691 50.6182 46.691Z" fill="white"/>
</svg>
